<?xml version="1.0" standalone="no"?>
<!DOCTYPE svg PUBLIC "-//W3C//DTD SVG 20010904//EN"
 "http://www.w3.org/TR/2001/REC-SVG-20010904/DTD/svg10.dtd">
<svg version="1.0" xmlns="http://www.w3.org/2000/svg"
 width="512.000000pt" height="512.000000pt" viewBox="0 0 512.000000 512.000000"
 preserveAspectRatio="xMidYMid meet">
<metadata>
Created by potrace 1.11, written by Peter Selinger 2001-2013
</metadata>
<g transform="translate(0.000000,512.000000) scale(0.100000,-0.100000)"
fill="#000000" stroke="none">
<path d="M3877 4763 c-3 -5 -26 -9 -51 -8 -35 0 -46 -4 -46 -15 0 -12 -2 -12
-9 -1 -5 8 -11 9 -15 3 -3 -6 -17 -9 -31 -8 -13 2 -26 -3 -29 -10 -3 -8 -19
-14 -36 -14 -16 0 -30 -4 -30 -10 0 -5 -9 -10 -20 -10 -11 0 -20 -4 -20 -10 0
-5 -5 -10 -11 -10 -17 0 -127 -80 -133 -97 -3 -8 -11 -11 -17 -7 -7 4 -9 3 -6
-3 3 -5 -3 -15 -13 -23 -10 -8 -17 -17 -14 -21 2 -4 -5 -10 -16 -14 -11 -4
-18 -11 -15 -16 4 -5 1 -9 -6 -9 -7 0 -10 -3 -7 -6 3 -3 -7 -20 -23 -37 -25
-27 -31 -30 -39 -17 -9 13 -11 13 -19 1 -5 -8 -16 -11 -25 -8 -9 4 -16 1 -16
-6 0 -8 -4 -6 -10 3 -5 8 -10 10 -10 4 0 -7 -7 -15 -16 -18 -8 -3 -12 -2 -9 4
3 6 3 10 -2 11 -4 0 -18 2 -31 3 -16 2 -21 -1 -18 -11 5 -11 1 -11 -16 -2 -11
6 -36 12 -54 13 -19 2 -37 6 -40 9 -4 3 -15 2 -25 -4 -11 -5 -19 -6 -19 -1 0
10 -53 7 -71 -3 -8 -6 -10 -4 -4 4 6 10 3 11 -13 2 -15 -8 -21 -8 -24 1 -3 7
-10 8 -23 1 -11 -5 -45 -9 -77 -8 -31 0 -54 -3 -52 -6 2 -4 -3 -9 -11 -13 -8
-3 -15 0 -15 6 0 7 -5 6 -15 -2 -8 -6 -19 -9 -25 -5 -5 3 -10 1 -10 -6 0 -8
-4 -8 -16 1 -12 11 -15 11 -12 0 2 -9 -6 -15 -19 -16 -13 -1 -30 -7 -40 -15
-12 -10 -15 -10 -9 -1 4 7 -8 4 -27 -7 -19 -11 -38 -17 -41 -14 -3 4 -6 1 -6
-6 0 -7 -5 -9 -10 -6 -6 3 -13 -1 -16 -10 -6 -13 -8 -14 -15 -3 -7 10 -9 10
-9 0 0 -7 -10 -17 -22 -22 -36 -15 -61 -33 -76 -53 -7 -9 -17 -15 -22 -12 -4
3 -10 -4 -13 -15 -3 -11 -9 -19 -14 -18 -4 2 -9 0 -10 -5 -5 -15 -28 -35 -35
-30 -7 4 -10 -4 -7 -23 0 -3 -11 -16 -25 -29 -14 -13 -26 -28 -26 -33 0 -5 -7
-15 -15 -22 -8 -7 -13 -16 -10 -20 3 -4 -2 -11 -11 -14 -10 -4 -13 -2 -8 6 11
17 -16 -1 -52 -36 -18 -16 -30 -35 -27 -42 2 -6 -3 -14 -11 -17 -9 -4 -16 -15
-16 -24 0 -10 -7 -29 -16 -41 -8 -12 -12 -27 -9 -32 3 -6 2 -10 -4 -10 -6 0
-8 -6 -5 -14 3 -8 1 -17 -4 -20 -5 -3 -8 -17 -7 -31 2 -17 -2 -25 -11 -25 -9
0 -12 -5 -9 -10 4 -6 10 -8 15 -5 5 3 3 -6 -4 -20 -7 -14 -12 -44 -11 -65 2
-22 -1 -40 -6 -40 -5 0 -9 -5 -9 -11 0 -5 5 -7 12 -3 8 5 8 3 2 -7 -5 -8 -9
-96 -10 -196 0 -163 2 -181 15 -170 14 10 14 10 4 -4 -7 -9 -11 -19 -8 -23 3
-3 0 -2 -6 3 -6 5 -18 7 -26 4 -7 -3 -23 3 -35 13 -14 12 -18 14 -13 4 8 -13
6 -13 -8 -2 -9 8 -21 11 -27 7 -5 -3 -10 -1 -10 5 0 6 -5 8 -10 5 -6 -3 -10
-1 -10 5 0 7 -6 10 -13 7 -7 -3 -21 1 -32 9 -21 16 -95 19 -95 5 0 -6 -8 -9
-17 -9 -10 0 -34 -7 -54 -15 -20 -9 -39 -13 -43 -10 -3 4 -6 1 -6 -6 0 -7 -4
-10 -9 -6 -5 3 -12 1 -16 -4 -3 -6 -12 -8 -19 -5 -8 3 -17 0 -21 -5 -3 -6 -11
-9 -16 -6 -5 4 -9 2 -9 -4 0 -5 -8 -8 -17 -7 -10 2 -21 -1 -24 -6 -4 -6 -18
-11 -32 -11 -14 -1 -23 -6 -19 -11 3 -5 -2 -7 -11 -3 -10 3 -17 2 -17 -3 0 -5
-9 -7 -20 -5 -11 2 -20 -1 -20 -7 0 -6 -3 -8 -7 -5 -3 4 -17 0 -30 -8 -17 -12
-23 -12 -23 -3 0 8 -5 5 -11 -5 -6 -9 -14 -15 -19 -12 -5 3 -11 1 -15 -4 -3
-5 -14 -8 -25 -6 -12 2 -18 0 -15 -6 5 -8 -23 -14 -47 -10 -5 0 -8 -4 -8 -10
0 -5 -4 -7 -10 -4 -5 3 -10 2 -10 -4 0 -5 -9 -8 -20 -6 -11 2 -20 0 -20 -6 0
-5 -3 -8 -7 -8 -16 3 -73 -14 -73 -21 0 -5 -8 -7 -17 -5 -10 1 -30 -4 -45 -11
-15 -8 -36 -14 -47 -14 -10 0 -21 -4 -23 -8 -1 -5 -16 -12 -31 -16 -21 -5 -27
-4 -21 5 4 8 3 9 -5 5 -6 -4 -9 -12 -6 -17 4 -5 -3 -10 -14 -10 -29 -2 -33 -3
-56 -16 -11 -6 -28 -9 -38 -7 -10 1 -21 -4 -24 -12 -3 -8 -9 -11 -14 -9 -5 3
-21 -1 -37 -9 -16 -8 -32 -13 -35 -10 -2 3 -21 -4 -41 -15 -21 -12 -36 -16
-36 -10 0 8 -6 7 -16 -2 -9 -7 -22 -14 -30 -16 -21 -5 -48 -11 -54 -13 -3 -1
-8 -2 -12 -1 -5 0 -8 -4 -8 -9 0 -5 -3 -9 -8 -9 -4 1 -10 0 -14 -1 -9 -3 -9
-3 -56 -14 -17 -4 -32 -11 -32 -16 0 -5 -10 -7 -22 -5 -44 9 -49 -7 -46 -171
2 -94 7 -154 13 -154 6 0 3 -5 -5 -10 -13 -9 -13 -10 0 -10 12 0 12 -2 2 -9
-11 -7 -11 -9 2 -14 9 -4 13 -13 10 -22 -3 -8 -10 -12 -15 -9 -5 3 -6 -2 -3
-10 3 -9 11 -13 18 -9 8 4 8 2 -1 -7 -8 -8 -9 -20 -3 -36 7 -17 6 -24 -3 -24
-7 0 -8 -3 -2 -8 6 -4 10 -47 9 -97 0 -51 4 -96 10 -104 8 -11 8 -13 0 -8 -7
4 -11 -7 -10 -33 0 -22 5 -40 9 -40 5 0 5 -6 1 -12 -11 -18 -12 -48 -2 -54 5
-3 3 -13 -4 -22 -10 -12 -10 -14 0 -8 13 8 13 11 16 -174 1 -63 5 -121 9 -127
5 -7 4 -13 -2 -13 -11 0 -9 -19 3 -39 6 -10 5 -12 -2 -7 -7 4 -12 2 -12 -3 0
-6 4 -11 9 -11 10 0 9 -25 -1 -36 -10 -9 3 -35 14 -28 6 4 6 -1 -1 -13 -6 -11
-8 -23 -4 -26 3 -4 7 -53 7 -109 1 -57 5 -108 9 -114 3 -6 3 -14 0 -18 -11
-11 -12 -36 -1 -36 7 0 6 -5 -1 -14 -9 -11 -9 -15 1 -19 10 -4 10 -6 -1 -6
-11 -1 -11 -4 -1 -16 10 -12 10 -15 -1 -15 -9 0 -10 -3 -4 -8 15 -11 17 -32 2
-32 -8 0 -8 -3 2 -9 12 -8 13 -15 3 -35 -9 -21 -9 -27 6 -35 12 -7 13 -10 3
-11 -10 0 -11 -3 -2 -14 9 -10 9 -16 1 -21 -7 -4 -8 -11 -2 -18 5 -7 9 -24 8
-39 -1 -14 2 -24 7 -21 5 3 6 15 3 27 -5 19 -4 19 15 -4 12 -14 18 -18 14 -10
-4 8 0 7 9 -4 9 -11 21 -16 32 -12 12 5 15 2 10 -9 -3 -9 -2 -13 4 -10 6 3 13
-2 17 -11 6 -16 7 -16 14 2 7 18 8 18 8 0 1 -13 6 -17 21 -13 17 4 18 2 10
-14 -9 -17 -8 -18 12 -11 27 10 58 5 58 -9 0 -11 -22 -7 -33 6 -5 6 -7 4 -4
-5 2 -10 14 -14 36 -12 20 1 30 -2 26 -8 -3 -5 1 -10 10 -10 10 0 13 5 9 13
-5 8 -3 8 9 -2 9 -7 14 -18 10 -25 -4 -6 0 -5 9 2 19 15 34 0 22 -21 -5 -8 -2
-8 9 2 13 10 17 10 17 1 0 -7 7 -10 15 -6 9 3 18 -1 21 -9 4 -8 10 -15 16 -15
5 0 6 5 2 12 -4 6 -3 8 4 4 6 -3 9 -16 7 -29 -4 -20 -3 -20 8 -5 12 15 14 15
25 0 8 -11 10 -11 6 -2 -6 12 -4 12 12 -1 10 -9 25 -15 32 -13 7 1 8 0 2 -3
-5 -2 -10 -9 -10 -14 0 -6 7 -6 19 0 22 12 32 5 23 -17 -5 -15 -4 -15 12 -3
14 12 19 12 25 2 5 -7 12 -13 17 -14 5 -1 8 -7 8 -14 -1 -7 3 -11 8 -10 6 1
13 -4 16 -12 3 -8 0 -11 -7 -7 -6 4 -18 3 -27 -2 -12 -6 -6 -9 19 -8 19 1 33
4 30 8 -13 22 12 25 50 6 54 -27 54 -28 38 -37 -10 -6 -9 -10 4 -14 9 -4 13
-3 10 3 -3 6 -1 10 4 10 6 0 11 -5 11 -11 0 -5 5 -7 10 -4 6 4 7 11 4 17 -4 7
-2 8 5 4 6 -4 9 -12 6 -17 -4 -5 3 -9 14 -9 41 0 65 -18 49 -37 -6 -8 -3 -10
11 -6 12 3 18 10 14 16 -3 6 -1 7 6 3 6 -4 9 -12 6 -17 -4 -5 4 -9 17 -9 13 0
29 -5 36 -12 7 -7 12 -9 12 -4 0 4 7 0 16 -8 8 -9 19 -14 24 -11 5 3 13 -7 19
-22 9 -22 10 -23 7 -5 -3 18 -1 21 8 13 7 -6 15 -9 17 -6 11 10 61 -45 55 -60
-3 -9 -2 -13 4 -10 6 3 10 13 10 21 0 8 5 14 11 14 6 0 8 -7 5 -16 -3 -8 -2
-12 4 -9 21 13 48 -5 45 -30 -2 -21 0 -23 17 -14 10 5 24 7 30 3 7 -4 8 -3 4
4 -4 7 -2 12 3 12 6 0 11 -6 11 -14 0 -8 5 -18 12 -22 8 -5 9 -2 5 10 -4 10
-3 15 3 11 6 -3 10 -13 10 -21 0 -8 4 -14 10 -14 5 0 7 8 4 18 -5 15 -4 15 9
-1 9 -10 21 -20 29 -21 22 -4 88 -35 88 -41 0 -3 -9 -1 -19 5 -11 5 -23 10
-28 10 -4 -1 3 -7 17 -15 19 -10 28 -11 39 -2 12 9 13 9 7 0 -7 -13 4 -17 31
-14 7 1 11 -4 9 -11 -1 -7 -1 -10 1 -5 3 4 8 5 13 2 4 -3 7 3 6 13 -1 12 5 16
22 14 16 -2 22 2 22 15 0 11 3 14 8 7 4 -6 15 -13 24 -17 12 -4 15 -2 11 8 -3
8 -10 12 -16 8 -6 -3 -7 -1 -3 5 4 7 17 12 29 12 18 0 19 -2 7 -11 -13 -9 -13
-10 0 -6 8 2 14 11 12 20 -2 12 2 15 14 10 10 -4 15 -2 11 3 -8 14 35 15 52 1
12 -10 13 -9 2 12 -13 23 -12 23 21 19 31 -3 34 -1 30 17 l-5 20 24 -20 c18
-15 20 -16 10 -3 -12 16 -11 18 17 14 22 -2 29 0 25 10 -9 24 6 35 30 22 19
-10 20 -9 10 4 -11 13 -9 15 15 14 17 -1 26 -6 24 -14 -1 -8 2 -11 9 -7 8 5 8
10 0 18 -16 16 -14 23 15 36 23 10 26 10 20 -5 -6 -15 -4 -15 11 -3 15 13 16
12 9 -6 -6 -16 -5 -17 5 -8 10 10 9 15 -1 28 -7 8 -9 16 -4 16 5 1 20 3 34 4
13 1 26 8 28 14 2 7 9 8 22 1 13 -7 21 -7 26 2 4 7 3 8 -4 4 -7 -4 -12 -3 -12
2 0 16 13 22 25 12 9 -8 14 -6 19 5 4 11 2 14 -6 9 -7 -5 -8 -3 -4 5 5 7 14
10 22 7 7 -3 20 1 28 9 11 11 15 12 19 2 3 -8 10 -6 23 7 19 20 19 20 -1 5
-19 -13 -19 -13 -6 4 8 9 16 15 19 12 3 -3 16 2 30 11 13 9 21 11 18 5 -4 -6
-2 -11 3 -11 6 0 11 7 11 16 0 12 3 14 13 6 8 -7 18 -7 27 -2 17 11 33 3 24
-12 -4 -7 -2 -8 5 -4 6 4 9 12 6 17 -4 5 0 9 7 9 10 0 9 3 -2 10 -17 10 -6 25
18 25 9 0 16 6 14 13 -2 10 2 10 18 2 11 -6 20 -8 20 -4 0 3 9 -4 21 -17 l20
-24 -17 27 c-9 15 -21 25 -27 21 -6 -3 -7 -1 -3 5 11 18 47 14 63 -5 10 -12
10 -9 -1 10 -14 23 -14 27 -2 27 8 0 17 6 20 13 3 6 3 1 1 -13 -6 -25 -6 -25
10 2 9 17 21 25 30 22 8 -4 18 1 21 10 3 9 10 16 16 16 5 0 6 -6 2 -12 -4 -7
-4 -10 1 -6 4 4 14 0 22 -10 13 -15 13 -14 3 7 -12 23 -2 40 23 41 17 0 23 2
36 13 17 15 43 18 35 5 -5 -7 -2 -8 5 -4 7 5 10 14 8 20 -3 7 1 13 9 13 7 0
11 -3 9 -7 -2 -3 6 -6 18 -7 12 0 16 1 10 4 -7 3 -13 9 -13 14 0 4 6 6 14 3 8
-3 17 0 22 7 4 8 3 10 -4 5 -17 -10 -15 -1 4 14 8 8 14 9 13 4 -3 -18 1 -34
10 -34 5 0 7 10 4 23 -3 16 -2 18 5 8 8 -11 10 -11 14 0 5 12 9 12 29 0 24
-14 24 -14 5 8 -18 20 -14 26 16 23 3 -1 11 5 18 13 6 7 18 11 26 8 9 -3 14 1
14 12 0 9 4 14 8 11 8 -4 10 24 12 119 1 11 6 23 13 27 9 6 9 8 0 8 -7 0 -13
5 -13 11 0 5 5 7 10 4 12 -8 9 17 -4 26 -4 4 -3 17 4 29 10 18 9 24 -1 31 -9
6 -10 12 -4 17 6 4 10 64 10 142 0 107 3 138 15 148 8 8 10 11 4 8 -7 -3 -11
6 -12 25 0 20 3 27 11 22 7 -4 6 0 -2 10 -9 12 -10 17 -2 17 8 0 9 5 1 19 -7
14 -7 22 0 26 8 5 8 11 0 20 -7 8 -7 15 -1 19 11 7 9 25 -3 45 -6 9 -5 12 1 8
6 -4 9 32 9 96 -1 56 2 110 6 119 5 10 3 20 -3 24 -9 5 -6 11 6 21 11 7 13 13
7 13 -7 0 -12 5 -12 11 0 5 6 7 13 3 9 -5 9 -4 0 6 -9 9 -9 18 -1 33 7 14 7
22 -2 27 -9 6 -9 9 -1 15 9 5 9 11 -1 23 -10 12 -10 14 0 8 7 -4 12 -2 12 8 0
8 -5 18 -10 21 -7 4 -8 11 -2 18 6 7 9 56 8 110 0 53 2 97 5 97 4 0 5 9 2 20
-3 12 0 20 6 20 7 0 9 5 6 10 -4 6 -12 7 -18 4 -9 -5 -9 -4 0 6 6 7 9 19 6 28
-4 9 -2 13 4 9 5 -3 10 0 10 8 0 8 -5 15 -10 15 -5 0 -3 8 4 17 12 15 12 16
-1 8 -12 -6 -12 -5 -3 5 6 7 9 18 6 25 -2 8 1 23 7 35 7 13 8 20 3 17 -5 -3
-8 42 -6 107 2 97 0 116 -14 127 -11 9 -14 10 -9 2 5 -9 2 -11 -8 -7 -9 3 -16
11 -16 18 0 6 -5 4 -10 -4 -6 -10 -10 -11 -10 -2 0 6 -8 12 -18 12 -10 0 -34
8 -55 19 -20 10 -34 14 -31 9 4 -6 -4 -4 -17 3 -13 7 -30 12 -36 11 -7 -2 -13
1 -13 5 0 5 -12 10 -27 11 -15 1 -30 7 -34 13 -3 6 -10 10 -15 9 -5 0 -18 1
-29 4 -11 3 -21 5 -23 5 -2 0 -15 7 -29 16 -17 12 -23 13 -18 4 6 -11 5 -12
-6 -1 -7 6 -21 12 -31 12 -12 0 -16 5 -11 18 8 20 33 47 33 35 0 -4 7 3 16 15
12 17 19 20 29 12 9 -8 14 -7 18 3 3 8 16 14 29 13 13 -1 26 2 29 6 9 13 69
17 69 4 0 -7 3 -8 8 -1 4 6 30 10 59 10 28 -1 50 2 48 5 -2 4 10 4 27 2 24 -4
29 -2 23 9 -8 12 -6 12 8 0 14 -11 20 -11 34 0 14 12 15 12 9 1 -7 -11 -4 -12
10 -4 11 5 37 10 59 10 22 0 45 1 50 2 6 1 13 2 18 1 4 0 7 5 7 11 0 9 4 8 10
-2 8 -12 10 -12 10 -1 0 11 3 11 17 0 14 -12 16 -12 9 1 -6 13 -5 13 6 0 7 -9
21 -14 31 -12 9 2 17 -2 17 -8 0 -6 5 -8 10 -5 6 3 10 0 10 -7 0 -8 9 -20 20
-28 15 -11 17 -17 7 -29 -9 -12 -9 -13 1 -7 11 6 17 -5 13 -26 0 -5 4 -8 10
-8 8 0 8 -5 -1 -15 -10 -12 -10 -15 0 -15 10 0 10 -3 0 -15 -7 -8 -9 -15 -4
-15 5 0 10 -16 11 -35 1 -25 -2 -33 -10 -29 -8 5 -8 3 1 -7 6 -7 12 -24 12
-37 0 -15 -4 -21 -12 -17 -7 4 -4 -1 6 -9 15 -12 16 -16 5 -16 -12 0 -12 -2 0
-9 11 -7 11 -9 0 -14 -9 -4 -10 -6 -2 -6 7 -1 10 -8 7 -16 -4 -8 -1 -22 5 -29
7 -8 8 -17 3 -20 -5 -3 -9 -28 -9 -56 -1 -35 2 -48 11 -43 7 5 7 2 -1 -8 -10
-12 -10 -18 -1 -27 9 -9 9 -12 0 -12 -9 0 -10 -5 -2 -19 7 -13 7 -22 0 -26 -7
-4 -7 -13 0 -24 6 -12 5 -22 -2 -29 -9 -9 -9 -12 1 -12 7 0 11 -6 8 -14 -3 -7
0 -19 6 -26 9 -10 9 -11 0 -6 -6 3 -14 2 -18 -4 -3 -5 -2 -10 3 -10 5 0 8 -23
7 -52 -2 -35 0 -47 6 -37 9 13 5 -21 -7 -59 -2 -8 1 -10 8 -6 7 5 9 -1 4 -19
-4 -16 -1 -27 7 -30 9 -4 9 -6 -1 -6 -10 -1 -10 -5 2 -17 9 -8 13 -20 10 -26
-5 -7 -2 -8 6 -3 10 6 12 4 7 -9 -4 -11 -3 -15 4 -11 6 4 13 -2 16 -14 3 -11
9 -18 15 -15 5 3 16 0 24 -7 23 -19 122 -20 129 -1 3 8 8 12 12 9 9 -9 44 13
38 24 -4 5 1 9 9 9 8 0 18 5 22 12 5 7 2 9 -7 4 -8 -4 -6 -1 3 7 14 11 15 16
5 27 -9 10 -9 11 1 6 8 -5 12 0 12 13 0 12 -1 22 -2 24 -1 1 4 13 11 26 8 14
9 21 2 17 -6 -4 -11 -3 -11 3 0 5 5 13 11 17 8 4 7 9 -2 15 -11 7 -11 9 1 9
13 0 13 1 0 10 -13 9 -13 10 0 10 13 0 13 1 0 10 -12 8 -12 10 -1 10 11 0 11
3 0 17 -10 11 -10 14 -1 9 6 -4 12 -2 12 3 0 6 5 11 11 11 5 0 8 -4 5 -9 -6
-9 23 -5 54 6 8 4 19 5 23 4 5 -1 6 3 2 9 -3 5 3 10 13 10 13 0 19 6 18 18 0
10 5 16 13 14 8 -2 11 3 8 12 -4 9 -2 18 3 21 5 3 6 13 3 22 -4 11 -3 14 5 9
16 -9 15 7 0 22 -9 9 -9 12 1 12 7 0 10 4 6 9 -3 5 -1 13 5 16 8 5 8 11 0 20
-8 10 -8 15 0 20 7 4 8 11 1 18 -15 19 -15 21 -2 45 9 16 9 22 0 22 -8 0 -9 4
0 13 8 10 7 17 -1 25 -9 9 -9 12 1 12 10 0 11 3 2 14 -9 11 -9 15 1 19 10 4
10 6 -1 6 -11 1 -11 4 -1 16 10 12 10 15 0 15 -10 0 -10 3 0 15 10 12 10 15
-1 15 -11 0 -11 2 1 10 12 8 12 10 1 10 -11 0 -11 3 -1 15 10 12 10 15 -1 15
-8 0 -6 6 7 16 10 8 14 13 7 10 -15 -8 -27 10 -13 19 8 5 7 12 -2 23 -11 14
-10 15 6 9 15 -6 17 -5 8 6 -9 10 -8 17 1 26 9 10 8 11 -8 5 -17 -6 -18 -5 -8
7 6 8 10 29 9 47 -1 17 1 37 5 44 4 7 3 20 -2 30 -7 13 -6 18 3 18 9 0 9 3 -2
10 -13 9 -13 10 0 11 10 0 8 3 -5 9 l-20 9 20 0 c17 1 17 3 5 11 -13 9 -13 10
0 10 13 0 13 1 0 10 -13 8 -12 11 5 25 11 9 15 14 8 11 -6 -4 -14 -2 -18 4 -3
5 0 10 7 10 10 0 10 2 -1 9 -11 7 -10 11 5 20 11 6 13 11 7 11 -8 0 -13 14
-13 36 0 25 -4 33 -12 29 -7 -4 -4 1 7 10 11 9 19 20 18 25 -1 4 7 5 19 2 14
-3 19 -1 14 6 -3 6 -2 13 4 17 5 3 10 0 10 -7 1 -7 6 -3 13 10 7 12 16 19 20
16 4 -4 7 0 7 9 0 11 8 17 21 17 15 0 19 5 15 15 -3 8 0 14 7 12 7 -1 11 4 9
11 -1 8 2 11 7 8 5 -3 23 10 40 29 17 19 35 35 41 35 6 0 9 4 6 9 -12 19 20
17 48 -2 18 -13 26 -15 21 -6 -8 12 -6 12 8 1 9 -8 20 -11 25 -8 6 3 15 -1 22
-8 12 -15 100 -18 100 -4 0 16 37 8 55 -12 10 -11 24 -20 32 -20 7 0 16 -6 19
-14 3 -8 12 -12 20 -9 8 3 14 2 13 -3 -3 -19 2 -28 9 -17 5 8 15 4 32 -15 14
-14 19 -22 13 -18 -9 5 -11 2 -7 -8 3 -9 11 -13 16 -10 6 4 5 -2 -1 -14 -7
-14 -8 -23 -1 -27 5 -3 10 -11 10 -16 0 -6 -5 -7 -12 -3 -7 5 -8 3 -3 -7 13
-20 15 -60 3 -53 -6 4 -6 -2 1 -15 9 -16 9 -21 -1 -21 -10 0 -10 -2 1 -9 10
-6 10 -10 1 -16 -8 -5 -7 -12 5 -25 12 -14 13 -20 4 -26 -8 -5 -10 -3 -4 6 5
9 4 11 -4 6 -6 -4 -8 -13 -4 -19 12 -20 12 -37 0 -37 -7 0 -5 -5 3 -10 11 -7
11 -10 2 -10 -7 0 -10 -5 -7 -10 4 -6 12 -7 18 -3 7 3 4 -2 -5 -13 -12 -13
-14 -24 -8 -34 12 -19 13 -33 1 -26 -8 6 -26 -40 -22 -57 1 -5 -3 -6 -9 -2 -5
3 -10 1 -10 -5 0 -6 -4 -8 -10 -5 -5 3 -10 1 -10 -4 0 -6 -7 -11 -16 -11 -8 0
-13 -4 -10 -8 3 -5 -1 -9 -9 -9 -8 0 -12 4 -10 8 3 3 -6 9 -20 11 -13 3 -22 1
-19 -3 3 -5 -2 -6 -10 -3 -9 3 -13 11 -10 16 4 6 -5 2 -19 -7 -14 -9 -29 -17
-34 -18 -4 -1 -9 -10 -10 -20 -2 -10 1 -15 7 -12 5 3 10 -1 10 -10 0 -9 7 -23
15 -31 10 -11 15 -12 15 -3 0 7 9 2 19 -10 11 -12 22 -22 25 -22 26 3 36 -1
30 -11 -5 -7 -2 -9 8 -5 9 3 20 1 26 -5 6 -6 12 -6 17 3 6 8 4 10 -5 4 -9 -6
-11 -4 -6 4 6 9 12 9 24 -2 17 -14 47 -12 38 2 -3 4 1 8 9 8 8 0 12 -4 9 -9
-3 -4 -1 -8 5 -8 5 0 13 5 16 11 4 6 13 8 21 5 8 -3 13 -2 11 2 -1 4 2 8 8 9
8 1 25 35 24 49 0 3 7 11 17 18 9 7 14 18 10 24 -4 7 -2 12 4 12 6 0 8 5 5 10
-3 6 -2 10 4 10 6 0 9 17 8 38 -1 21 2 36 8 35 6 -1 12 8 12 20 2 17 0 19 -7
7 -6 -9 -10 -10 -10 -3 0 6 5 15 10 18 16 10 13 615 -2 615 -9 0 -8 4 2 10 13
9 13 10 0 10 -12 0 -15 15 -15 70 0 39 4 70 9 70 5 0 3 6 -3 13 -6 8 -8 17 -4
20 3 4 0 14 -8 24 -9 11 -10 14 -1 9 6 -4 12 -2 12 3 0 6 -5 11 -11 11 -6 0
-9 9 -6 20 3 11 2 20 -2 20 -5 0 -7 26 -6 58 1 31 -3 63 -9 71 -8 11 -8 13 1
8 8 -5 8 -1 0 17 -7 13 -16 22 -21 19 -5 -4 -6 0 0 8 10 17 14 79 4 79 -7 0
-9 9 -12 54 -1 14 -6 22 -12 19 -5 -4 -7 1 -3 11 5 11 3 15 -5 10 -8 -5 -9 -2
-5 9 4 10 2 16 -6 14 -7 -1 -11 4 -10 11 2 6 -1 12 -6 12 -8 0 -24 37 -22 52
1 5 -2 7 -7 5 -4 -1 -8 1 -10 5 -7 20 -75 78 -84 72 -6 -4 -8 -3 -5 3 4 5 -5
16 -18 23 -13 7 -22 17 -19 21 3 5 -2 6 -10 3 -9 -3 -16 -1 -16 5 0 6 -7 11
-16 11 -9 0 -12 5 -8 13 4 6 3 9 -1 4 -5 -4 -19 0 -33 9 -13 9 -21 11 -17 4 8
-13 -36 9 -46 24 -4 5 -16 6 -28 3 -11 -3 -20 -2 -19 2 2 19 -3 24 -12 11 -6
-9 -10 -11 -10 -3 0 7 -7 10 -15 7 -8 -4 -15 -1 -15 4 0 6 -10 9 -21 7 -12 -3
-19 -1 -15 2 4 4 -6 13 -21 20 -16 7 -20 11 -10 8 24 -6 21 4 -5 16 -45 20
-68 36 -61 42 3 4 -3 7 -15 7 -12 0 -22 5 -22 11 0 6 -7 9 -15 5 -8 -3 -15 -1
-15 4 0 6 -7 10 -16 10 -8 0 -13 4 -10 8 3 5 -5 8 -17 7 -12 -1 -32 4 -43 12
-12 8 -26 13 -30 11 -5 -1 -20 4 -34 12 -22 12 -24 12 -13 -2 11 -13 9 -14
-21 -4 -19 6 -32 15 -29 20 4 5 1 6 -8 0 -18 -11 -72 -12 -80 -1 -4 5 -9 5
-12 0z m-1798 -1105 c-6 -11 -7 -18 -1 -14 5 3 10 -6 10 -21 0 -15 5 -29 11
-31 9 -3 9 -7 0 -18 -9 -11 -9 -14 0 -14 7 0 10 -4 7 -8 -3 -5 1 -21 9 -36 8
-15 9 -24 3 -20 -7 5 -8 2 -2 -7 4 -8 10 -23 11 -34 2 -11 10 -23 19 -28 11
-6 12 -12 4 -22 -8 -9 -8 -15 0 -20 6 -3 8 -11 4 -16 -3 -5 -1 -16 6 -23 6 -8
13 -24 15 -36 8 -42 16 -60 28 -60 7 0 6 -4 -3 -10 -13 -9 -13 -10 0 -10 13 0
13 -1 0 -10 -13 -9 -13 -10 1 -10 11 0 15 -9 13 -30 -1 -17 2 -33 7 -36 5 -3
7 -19 4 -37 -7 -40 -15 -48 -15 -16 0 17 -3 20 -9 11 -7 -11 -15 -11 -45 2
-21 9 -40 15 -44 15 -19 -3 -51 15 -45 24 3 6 1 7 -5 3 -14 -9 -63 4 -57 14 3
5 1 11 -5 15 -6 4 -7 12 -1 24 5 9 8 29 7 44 -2 15 2 27 8 27 6 0 4 5 -4 10
-8 5 -10 10 -4 10 11 0 11 40 0 59 -4 5 -1 13 5 17 8 5 9 3 4 -6 -5 -9 -4 -11
3 -6 9 5 9 13 1 27 -7 15 -7 24 1 34 8 10 8 14 -2 17 -9 3 -10 9 -3 19 6 8 10
35 10 62 0 26 3 47 7 47 4 0 5 12 2 26 -3 14 -1 23 3 21 4 -3 9 6 10 19 4 47
6 52 21 46 11 -4 13 -1 7 8 -5 9 -4 11 3 6 9 -5 9 -13 1 -28z m-1819 -2698 c0
-5 -5 -10 -11 -10 -5 0 -7 5 -4 10 3 6 8 10 11 10 2 0 4 -4 4 -10z m2294 -407
c4 -10 4 -14 0 -11 -4 4 -15 3 -25 -3 -13 -6 -19 -6 -19 1 0 5 7 10 15 10 8 0
15 5 15 10 0 15 7 12 14 -7z m-1664 -3 c0 -5 -2 -10 -4 -10 -3 0 -8 5 -11 10
-3 6 -1 10 4 10 6 0 11 -4 11 -10z m1143 -241 c-8 -8 -13 -7 -18 2 -5 8 -4 10
3 5 7 -4 12 -2 12 5 0 7 3 9 7 6 4 -4 2 -12 -4 -18z m-583 -25 c0 -8 -5 -12
-10 -9 -6 4 -8 11 -5 16 9 14 15 11 15 -7z"/>
<path d="M3113 805 c0 -8 4 -12 9 -9 5 3 6 10 3 15 -9 13 -12 11 -12 -6z"/>
<path d="M3133 775 c0 -8 4 -12 9 -9 5 3 6 10 3 15 -9 13 -12 11 -12 -6z"/>
<path d="M3050 739 c0 -5 5 -7 10 -4 6 3 10 8 10 11 0 2 -4 4 -10 4 -5 0 -10
-5 -10 -11z"/>
<path d="M2990 736 c0 -2 8 -10 18 -17 15 -13 16 -12 3 4 -13 16 -21 21 -21
13z"/>
<path d="M2885 711 c-3 -5 -1 -12 5 -16 6 -4 8 -11 5 -16 -3 -5 1 -6 11 -2 15
5 15 7 0 15 -9 5 -14 13 -11 19 4 5 4 9 1 9 -3 0 -7 -4 -11 -9z"/>
<path d="M534 699 c-3 -6 -2 -15 3 -20 5 -5 9 -1 9 11 0 23 -2 24 -12 9z"/>
<path d="M2856 687 c3 -10 9 -15 12 -12 3 3 0 11 -7 18 -10 9 -11 8 -5 -6z"/>
<path d="M2830 680 c0 -5 5 -10 11 -10 5 0 7 5 4 10 -3 6 -8 10 -11 10 -2 0
-4 -4 -4 -10z"/>
<path d="M588 653 c6 -2 18 -2 25 0 6 3 1 5 -13 5 -14 0 -19 -2 -12 -5z"/>
<path d="M633 635 c0 -7 6 -11 14 -8 7 3 13 6 13 8 0 2 -6 5 -13 8 -8 3 -14
-1 -14 -8z"/>
<path d="M2806 618 c3 -5 10 -6 15 -3 13 9 11 12 -6 12 -8 0 -12 -4 -9 -9z"/>
<path d="M2731 604 c0 -11 3 -14 6 -6 3 7 2 16 -1 19 -3 4 -6 -2 -5 -13z"/>
<path d="M775 589 c-4 -6 -5 -12 -2 -15 2 -3 7 2 10 11 7 17 1 20 -8 4z"/>
<path d="M695 580 c3 -5 8 -10 11 -10 2 0 4 5 4 10 0 6 -5 10 -11 10 -5 0 -7
-4 -4 -10z"/>
<path d="M813 563 c1 -17 5 -20 19 -12 10 5 18 12 18 15 0 3 -5 2 -11 -2 -6
-3 -15 0 -20 7 -6 10 -8 8 -6 -8z"/>
<path d="M746 522 c-3 -5 1 -9 9 -9 8 0 12 4 9 9 -3 4 -7 8 -9 8 -2 0 -6 -4
-9 -8z"/>
<path d="M950 499 c0 -5 5 -7 10 -4 6 3 10 8 10 11 0 2 -4 4 -10 4 -5 0 -10
-5 -10 -11z"/>
<path d="M2495 501 c-3 -5 -2 -12 3 -15 5 -3 9 1 9 9 0 17 -3 19 -12 6z"/>
<path d="M2451 491 c-9 -6 -10 -11 -2 -15 6 -4 8 -13 5 -19 -4 -7 -3 -9 1 -4
7 5 16 48 11 47 -1 0 -7 -4 -15 -9z"/>
<path d="M929 477 c6 -8 7 -18 3 -22 -4 -5 -1 -5 6 -1 10 6 10 11 1 22 -6 8
-14 14 -16 14 -3 0 0 -6 6 -13z"/>
<path d="M973 451 c0 -11 5 -18 9 -15 4 3 5 11 1 19 -7 21 -12 19 -10 -4z"/>
<path d="M2366 451 c-19 -7 -19 -8 0 -13 13 -3 21 0 21 8 0 8 -1 14 -1 13 -1
0 -10 -4 -20 -8z"/>
<path d="M2410 456 c0 -2 8 -10 18 -17 15 -13 16 -12 3 4 -13 16 -21 21 -21
13z"/>
<path d="M879 433 c-13 -16 -12 -17 4 -4 9 7 17 15 17 17 0 8 -8 3 -21 -13z"/>
<path d="M1076 407 c3 -10 9 -15 12 -12 3 3 0 11 -7 18 -10 9 -11 8 -5 -6z"/>
<path d="M1126 402 c-3 -5 1 -9 9 -9 8 0 15 4 15 9 0 4 -4 8 -9 8 -6 0 -12 -4
-15 -8z"/>
<path d="M1170 400 c0 -5 5 -10 11 -10 5 0 7 5 4 10 -3 6 -8 10 -11 10 -2 0
-4 -4 -4 -10z"/>
<path d="M2260 400 c-9 -6 -10 -10 -3 -10 6 0 15 5 18 10 8 12 4 12 -15 0z"/>
<path d="M2217 389 c7 -7 15 -10 18 -7 3 3 -2 9 -12 12 -14 6 -15 5 -6 -5z"/>
<path d="M1195 379 c-4 -6 -4 -13 -1 -16 3 -4 6 -1 6 6 0 7 5 9 12 5 7 -4 8
-3 4 4 -9 15 -13 15 -21 1z"/>
<path d="M2286 382 c-3 -5 1 -9 9 -9 8 0 12 4 9 9 -3 4 -7 8 -9 8 -2 0 -6 -4
-9 -8z"/>
<path d="M2150 365 c0 -5 5 -17 10 -25 5 -8 10 -10 10 -5 0 6 -5 17 -10 25 -5
8 -10 11 -10 5z"/>
<path d="M1287 354 c-4 -4 -7 -12 -7 -18 0 -6 5 -4 10 4 9 13 10 13 11 0 1 -8
1 -19 0 -23 -1 -5 4 -5 10 -1 9 5 10 2 6 -10 -4 -10 -3 -15 3 -11 14 9 12 16
-8 43 -10 13 -21 20 -25 16z"/>
<path d="M1246 318 c3 -5 10 -6 15 -3 13 9 11 12 -6 12 -8 0 -12 -4 -9 -9z"/>
<path d="M2075 301 c-3 -5 -2 -12 3 -15 5 -3 9 1 9 9 0 17 -3 19 -12 6z"/>
<path d="M1393 265 c0 -8 4 -12 9 -9 5 3 6 10 3 15 -9 13 -12 11 -12 -6z"/>
<path d="M1529 203 c-13 -16 -12 -17 4 -4 16 13 21 21 13 21 -2 0 -10 -8 -17
-17z"/>
<path d="M1557 195 c-4 -8 -3 -16 1 -19 4 -3 9 4 9 15 2 23 -3 25 -10 4z"/>
<path d="M1793 165 c0 -7 6 -11 14 -8 7 3 13 6 13 8 0 2 -6 5 -13 8 -8 3 -14
-1 -14 -8z"/>
<path d="M1757 155 c-4 -8 -3 -16 1 -19 4 -3 9 4 9 15 2 23 -3 25 -10 4z"/>
<path d="M1650 151 c0 -6 4 -13 10 -16 6 -3 7 1 4 9 -7 18 -14 21 -14 7z"/>
<path d="M1670 156 c0 -2 8 -10 18 -17 15 -13 16 -12 3 4 -13 16 -21 21 -21
13z"/>
<path d="M1596 142 c-3 -5 1 -9 9 -9 8 0 12 4 9 9 -3 4 -7 8 -9 8 -2 0 -6 -4
-9 -8z"/>
</g>
</svg>
